<svg width="14" height="18" viewBox="0 0 14 18" fill="none" xmlns="http://www.w3.org/2000/svg">
<path d="M13.175 5.17499L9.14999 1.14999C8.84166 0.841656 8.41666 0.666656 7.97499 0.666656H1.99999C1.08333 0.666656 0.341662 1.41666 0.341662 2.33332L0.333328 15.6667C0.333328 16.5833 1.07499 17.3333 1.99166 17.3333H12C12.9167 17.3333 13.6667 16.5833 13.6667 15.6667V6.35832C13.6667 5.91666 13.4917 5.49166 13.175 5.17499ZM5.52499 13.4083L3.75833 11.6417C3.43333 11.3167 3.43333 10.7917 3.75833 10.4667C4.08333 10.1417 4.60833 10.1417 4.93333 10.4667L6.10833 11.6417L9.05833 8.69166C9.38333 8.36666 9.90833 8.36666 10.2333 8.69166C10.5583 9.01666 10.5583 9.54166 10.2333 9.86666L6.7 13.4C6.38333 13.7333 5.84999 13.7333 5.52499 13.4083ZM8.66666 6.49999C8.20833 6.49999 7.83333 6.12499 7.83333 5.66666V1.91666L12.4167 6.49999H8.66666Z" fill="#DADEE6"/>
</svg>
